<svg xmlns="http://www.w3.org/2000/svg" xmlns:xlink="http://www.w3.org/1999/xlink" width="500" zoomAndPan="magnify" viewBox="0 0 375 374.999991" height="500" preserveAspectRatio="xMidYMid meet" version="1.0"><path fill="#f1f1f1" d="M 305.679688 0.125 L 68.785156 0.125 C 30.761719 0.125 -0.175781 31.0625 -0.175781 69.085938 L -0.175781 305.972656 C -0.175781 344 30.761719 374.933594 68.785156 374.933594 L 305.679688 374.933594 C 343.703125 374.933594 374.640625 344 374.640625 305.972656 L 374.640625 69.085938 C 374.640625 31.058594 343.703125 0.125 305.679688 0.125 Z M 356.003906 305.96875 C 356.003906 333.71875 333.429688 356.292969 305.679688 356.292969 L 68.785156 356.292969 C 41.039062 356.292969 18.464844 333.71875 18.464844 305.96875 L 18.464844 69.085938 C 18.464844 41.335938 41.039062 18.761719 68.785156 18.761719 L 305.679688 18.761719 C 333.429688 18.761719 356.003906 41.335938 356.003906 69.085938 Z M 356.003906 305.96875 " fill-opacity="1" fill-rule="nonzero"/><path fill="#f1f1f1" d="M 272.257812 64.625 C 254.851562 64.625 240.691406 78.78125 240.691406 96.183594 C 240.691406 98.433594 240.9375 100.628906 241.390625 102.753906 C 225.742188 92.71875 207.164062 86.871094 187.230469 86.867188 C 131.734375 86.875 86.582031 132.03125 86.582031 187.527344 C 86.582031 243.027344 131.734375 288.183594 187.230469 288.183594 C 242.734375 288.183594 287.890625 243.027344 287.890625 187.527344 C 287.890625 165.011719 280.457031 144.203125 267.921875 127.417969 C 269.34375 127.613281 270.785156 127.75 272.261719 127.75 C 289.671875 127.75 303.832031 113.59375 303.832031 96.191406 C 303.832031 78.785156 289.667969 64.625 272.257812 64.625 Z M 187.230469 269.542969 C 142.011719 269.542969 105.21875 232.75 105.21875 187.527344 C 105.21875 142.308594 142.011719 105.511719 187.230469 105.503906 C 232.460938 105.511719 269.25 142.308594 269.25 187.527344 C 269.25 232.75 232.460938 269.542969 187.230469 269.542969 Z M 272.257812 109.113281 C 265.132812 109.113281 259.328125 103.3125 259.328125 96.183594 C 259.328125 89.058594 265.132812 83.261719 272.257812 83.261719 C 279.386719 83.261719 285.191406 89.0625 285.191406 96.191406 C 285.191406 103.3125 279.386719 109.113281 272.257812 109.113281 Z M 272.257812 109.113281 " fill-opacity="1" fill-rule="nonzero"/></svg>